<?xml version="1.0" encoding="UTF-8"?>
<svg version="1.1" xmlns="http://www.w3.org/2000/svg" width="96" height="96">
<path d="M0 0 C31.68 0 63.36 0 96 0 C96 31.68 96 63.36 96 96 C64.32 96 32.64 96 0 96 C0 64.32 0 32.64 0 0 Z " fill="#F7F7F8" transform="translate(0,0)"/>
<path d="M0 0 C8.43256099 4.98096365 14.52748845 11.80611208 17.16015625 21.32421875 C17.22203125 22.33484375 17.28390625 23.34546875 17.34765625 24.38671875 C17.40953125 25.13695313 17.47140625 25.8871875 17.53515625 26.66015625 C17.97061278 35.50536696 14.74449707 42.44792342 9.34765625 49.38671875 C3.05395002 56.11912837 -4.43598953 59.53178855 -13.65234375 59.88671875 C-22.57028528 59.53228774 -29.43581518 56.4187094 -35.8984375 50.30859375 C-42.56591251 43.0025855 -45.2000251 35.08700024 -44.95703125 25.21875 C-43.97125237 16.05606166 -39.20307006 9.5946745 -32.65234375 3.38671875 C-23.21125165 -3.97733309 -10.86084271 -5.03307345 0 0 Z " fill="#235394" transform="translate(61.65234375,19.61328125)"/>
<path d="M0 0 C-1.15173355 2.46800047 -2.04783565 4.04783565 -4 6 C-2.8553125 5.9484375 -1.710625 5.896875 -0.53125 5.84375 C4.15468445 5.84375 8.09830125 6.99201061 12.5 8.5 C13.22703125 8.73847656 13.9540625 8.97695313 14.703125 9.22265625 C16.47223935 9.80460176 18.23665346 10.40080457 20 11 C17.64309848 12.47648123 16.39634224 13.03982693 13.58984375 12.7578125 C12.71457031 12.54898438 11.83929688 12.34015625 10.9375 12.125 C4.24398443 10.75403898 -2.52297719 9.72272632 -9.0625 12.125 C-13.81937841 16.72843072 -13.5311756 23.75723293 -14 30 C-13.01 29.34 -12.02 28.68 -11 28 C-9.68 28 -8.36 28 -7 28 C-7.8125 29.9375 -7.8125 29.9375 -9 32 C-10.485 32.495 -10.485 32.495 -12 33 C-9.8006072 39.43156951 -9.8006072 39.43156951 -6 45 C3.2902364 44.66217322 8.93482861 40.24599554 15.3125 33.75 C15.92738281 33.08484375 16.54226562 32.4196875 17.17578125 31.734375 C20.04327851 29.00810351 22.02994889 28 26 28 C26 26.35 26 24.7 26 23 C26.66 22.67 27.32 22.34 28 22 C28.185625 22.8353125 28.185625 22.8353125 28.375 23.6875 C29.05976855 26.22114364 29.99133763 28.57921032 31 31 C30.01 31 29.02 31 28 31 C27.95101562 31.59167969 27.90203125 32.18335938 27.8515625 32.79296875 C27.10437361 40.68998236 25.23978493 45.07076969 20 51 C19.01 50.34 18.02 49.68 17 49 C17.5775 48.236875 18.155 47.47375 18.75 46.6875 C21.77264199 42.20751276 23.29744872 37.08954158 25 32 C20.88214089 34.05892956 17.93420952 35.81424116 15.0625 39.4375 C11.30728379 44.10641855 6.80206262 47.24110804 1 48.8125 C0.34 48.874375 -0.32 48.93625 -1 49 C-1 49.66 -1 50.32 -1 51 C-3.98352114 51.28658179 -5.46891855 51.41514891 -7.87890625 49.53125 C-15.54743126 40.27920127 -19.11464133 32.14797511 -18 20 C-16.16512419 12.14626407 -11.77864111 6.49095985 -6 1 C-4 0 -4 0 0 0 Z " fill="#1E4C96" transform="translate(35,22)"/>
<path d="M0 0 C0.5 2.1875 0.5 2.1875 0 5 C-1.80831982 6.40333153 -3.72652283 7.43847849 -5.7265625 8.55078125 C-8.19217299 10.12250203 -9.89980481 11.85147136 -11.875 14 C-16.47651275 18.79210796 -21.92914776 22.38691984 -28.59375 23.390625 C-31 23 -31 23 -32.80078125 21.171875 C-33.54908203 19.97304687 -33.54908203 19.97304687 -34.3125 18.75 C-34.82425781 17.96109375 -35.33601563 17.1721875 -35.86328125 16.359375 C-37 14 -37 14 -37 10 C-28.28629652 0.94406647 -11.7527638 -0.23985232 0 0 Z " fill="#EDF3F7" transform="translate(60,45)"/>
<path d="M0 0 C3.98785577 0.74520537 7.99076475 1.38116894 12 2 C12.495 4.475 12.495 4.475 13 7 C12.1028125 7.08636719 11.205625 7.17273437 10.28125 7.26171875 C3.12084528 8.06800399 -3.66845707 9.24733896 -10.5625 11.375 C-11.21605469 11.57182373 -11.86960937 11.76864746 -12.54296875 11.97143555 C-16.88293508 13.37623175 -20.26509118 15.42230963 -24 18 C-24.66 18 -25.32 18 -26 18 C-26.34954027 11.56586978 -26.33119494 6.62857076 -23 1 C-17.05030733 -4.76376477 -7.06455873 -2.23091328 0 0 Z " fill="#F9F7F9" transform="translate(47,34)"/>
<path d="M0 0 C0.99 0.66 1.98 1.32 3 2 C2.01 2.33 1.02 2.66 0 3 C0.721875 3.37511719 1.44375 3.75023437 2.1875 4.13671875 C3.115625 4.64847656 4.04375 5.16023438 5 5.6875 C5.928125 6.18636719 6.85625 6.68523438 7.8125 7.19921875 C10 9 10 9 10.3125 11.70703125 C10.209375 12.46371094 10.10625 13.22039063 10 14 C8.125 15.0625 8.125 15.0625 6 16 C5.34 15.67 4.68 15.34 4 15 C3.34 16.32 2.68 17.64 2 19 C-0.97 18.67 -3.94 18.34 -7 18 C-5.68 17.67 -4.36 17.34 -3 17 C-2.67 16.67 -2.34 16.34 -2 16 C-9.92306984 13.21823253 -16.58460606 11.49758842 -25 12 C-23.02 9.69 -21.04 7.38 -19 5 C-19.99 4.67 -20.98 4.34 -22 4 C-14.88200144 -0.1199785 -8.1570936 -0.97162057 0 0 Z " fill="#225398" transform="translate(54,17)"/>
<path d="M0 0 C0.66 0 1.32 0 2 0 C5.28080442 4.20353067 6.7792482 7.91353417 8 13 C4.37 13 0.74 13 -3 13 C-3 13.66 -3 14.32 -3 15 C-2.37351563 15.04898438 -1.74703125 15.09796875 -1.1015625 15.1484375 C0.12433594 15.26058594 0.12433594 15.26058594 1.375 15.375 C2.18710938 15.44460937 2.99921875 15.51421875 3.8359375 15.5859375 C6 16 6 16 8 18 C8.046875 20.3125 8.046875 20.3125 7.75 23 C7.66234375 23.886875 7.5746875 24.77375 7.484375 25.6875 C7 28 7 28 5 30 C4.62875 28.9275 4.2575 27.855 3.875 26.75 C2.18576582 22.71370486 -0.32410017 21.31741511 -4 19 C-4.875 16.75 -4.875 16.75 -5 15 C-5.495 17.475 -5.495 17.475 -6 20 C-6.33 20 -6.66 20 -7 20 C-7 18.35 -7 16.7 -7 15 C-18.04187438 16.44024448 -28.60202899 17.83658478 -39 22 C-39 21.34 -39 20.68 -39 20 C-39.99 19.67 -40.98 19.34 -42 19 C-30.64122414 13.82203551 -19.59778328 10.23218928 -7 11 C-7.495 9.515 -7.495 9.515 -8 8 C-7.50628906 7.67386719 -7.01257812 7.34773438 -6.50390625 7.01171875 C-5.86324219 6.57472656 -5.22257812 6.13773438 -4.5625 5.6875 C-3.60537109 5.04361328 -3.60537109 5.04361328 -2.62890625 4.38671875 C-0.7114316 2.9965948 -0.7114316 2.9965948 0 0 Z " fill="#204C95" transform="translate(67,30)"/>
<path d="M0 0 C7.19883866 1.0471038 12.8481974 6.19581166 17.21875 11.8046875 C22.08248948 18.57027383 21.76275677 24.38062728 21.4375 32.5 C20.7775 32.5 20.1175 32.5 19.4375 32.5 C19.4375 31.51 19.4375 30.52 19.4375 29.5 C18.58285156 29.31824219 17.72820312 29.13648437 16.84765625 28.94921875 C15.74292969 28.69785156 14.63820313 28.44648437 13.5 28.1875 C12.39785156 27.94386719 11.29570313 27.70023438 10.16015625 27.44921875 C9.26167969 27.13597656 8.36320312 26.82273437 7.4375 26.5 C7.1075 25.51 6.7775 24.52 6.4375 23.5 C8.06240954 23.47301811 9.68744633 23.45361243 11.3125 23.4375 C12.66988281 23.42009766 12.66988281 23.42009766 14.0546875 23.40234375 C16.4375 23.5 16.4375 23.5 18.4375 24.5 C18.08816406 23.81292969 17.73882812 23.12585938 17.37890625 22.41796875 C16.69634766 21.06638672 16.69634766 21.06638672 16 19.6875 C15.54753906 18.79417969 15.09507813 17.90085937 14.62890625 16.98046875 C13.4375 14.5 13.4375 14.5 12.4375 11.5 C11.7775 11.5 11.1175 11.5 10.4375 11.5 C10.355 12.11875 10.2725 12.7375 10.1875 13.375 C9.4375 15.5 9.4375 15.5 7.4375 16.5625 C6.4475 17.0265625 6.4475 17.0265625 5.4375 17.5 C5.1075 18.49 4.7775 19.48 4.4375 20.5 C3.7775 20.17 3.1175 19.84 2.4375 19.5 C2.4375 18.84 2.4375 18.18 2.4375 17.5 C1.4475 17.5 0.4575 17.5 -0.5625 17.5 C-0.2325 15.85 0.0975 14.2 0.4375 12.5 C1.241875 12.685625 2.04625 12.87125 2.875 13.0625 C3.720625 13.206875 4.56625 13.35125 5.4375 13.5 C5.7675 13.17 6.0975 12.84 6.4375 12.5 C6.4375 10.85 6.4375 9.2 6.4375 7.5 C2.8075 5.85 -0.8225 4.2 -4.5625 2.5 C-2.5625 0.5 -2.5625 0.5 0 0 Z " fill="#164995" transform="translate(56.5625,18.5)"/>
<path d="M0 0 C-0.55227301 6.99545816 -3.72024902 14.27428259 -8.875 19.125 C-12.67969884 21.4078193 -14.62879186 21.62445831 -19 21 C-22.4375 19.5 -22.4375 19.5 -25 18 C-23.73648882 15.47297764 -22.63999253 15.14893413 -20.125 13.9375 C-19.42632812 13.59589844 -18.72765625 13.25429687 -18.0078125 12.90234375 C-16 12 -16 12 -13 11 C-11.79117904 8.99983534 -11.79117904 8.99983534 -11 7 C-10.34 7 -9.68 7 -9 7 C-8.7525 6.401875 -8.505 5.80375 -8.25 5.1875 C-6.17157585 1.55025774 -4.21428716 0 0 0 Z " fill="#DFEAF2" transform="translate(60,54)"/>
<path d="M0 0 C4.52871289 2.823188 7.01536247 4.61104864 8.6875 9.83203125 C4.80053528 9.30676575 1.18267751 8.39574066 -2.5625 7.26953125 C-7.91106687 5.75813924 -12.78699907 5.50841189 -18.3125 5.83203125 C-13.22001601 0.30304863 -7.5075104 -3.79180002 0 0 Z " fill="#D9EAF5" transform="translate(47.3125,23.16796875)"/>
<path d="M0 0 C1.32 0.66 2.64 1.32 4 2 C4.48366189 5.77524973 4.67226615 9.24048086 4 13 C0.50981604 17.43652738 -4.6093513 19.65233782 -10 21 C-8.93800098 18.6105022 -7.92672352 16.92183842 -6.125 15 C-2.90054154 10.44782336 -1.59130502 5.30717153 0 0 Z " fill="#DAE9F1" transform="translate(64,54)"/>
<path d="M0 0 C0.66 0 1.32 0 2 0 C5.28080442 4.20353067 6.7792482 7.91353417 8 13 C2.06 12.01 2.06 12.01 -4 11 C-4.33 9.35 -4.66 7.7 -5 6 C-4.360625 5.566875 -3.72125 5.13375 -3.0625 4.6875 C-0.73253997 3.08760823 -0.73253997 3.08760823 0 0 Z " fill="#CEE3EF" transform="translate(67,30)"/>
<path d="M0 0 C2.08071366 0.36924582 4.16431713 0.72244301 6.25 1.0625 C7.32765625 1.23910156 8.4053125 1.41570313 9.515625 1.59765625 C10.33546875 1.73042969 11.1553125 1.86320312 12 2 C12.33 3.65 12.66 5.3 13 7 C11.23086176 7.22226864 9.45955629 7.42733873 7.6875 7.625 C6.20830078 7.79902344 6.20830078 7.79902344 4.69921875 7.9765625 C2 8 2 8 -1 6 C-0.67 5.34 -0.34 4.68 0 4 C-1.32 4.33 -2.64 4.66 -4 5 C-3.67 3.68 -3.34 2.36 -3 1 C-3.66 1 -4.32 1 -5 1 C-5 1.99 -5 2.98 -5 4 C-5.66 3.67 -6.32 3.34 -7 3 C-6.67 2.01 -6.34 1.02 -6 0 C-3.42511046 -1.28744477 -2.73729558 -0.7598355 0 0 Z " fill="#C2D7E6" transform="translate(47,34)"/>
<path d="M0 0 C1.45922693 0.11409593 2.91740598 0.24165544 4.375 0.375 C5.59316406 0.47941406 5.59316406 0.47941406 6.8359375 0.5859375 C9 1 9 1 11 3 C11.046875 5.3125 11.046875 5.3125 10.75 8 C10.61851563 9.3303125 10.61851563 9.3303125 10.484375 10.6875 C10 13 10 13 8 15 C7.4121875 13.3603125 7.4121875 13.3603125 6.8125 11.6875 C5.2696569 7.98616006 3.42382254 7.03578637 0 5 C-0.3125 2.3125 -0.3125 2.3125 0 0 Z " fill="#F4F9F8" transform="translate(64,45)"/>
<path d="M0 0 C1.06546953 3.1964086 1.07427838 5.65747276 1 9 C0.01 9 -0.98 9 -2 9 C-2.33 8.67 -2.66 8.34 -3 8 C-3.33 8.66 -3.66 9.32 -4 10 C-6.72265625 10.6328125 -6.72265625 10.6328125 -10.0625 11.125 C-11.16722656 11.29257813 -12.27195312 11.46015625 -13.41015625 11.6328125 C-14.69212891 11.81457031 -14.69212891 11.81457031 -16 12 C-16.33 11.34 -16.66 10.68 -17 10 C-16.35933594 9.78085938 -15.71867187 9.56171875 -15.05859375 9.3359375 C-8.90641937 7.08044585 -4.73458117 4.52872981 0 0 Z " fill="#EDF0F4" transform="translate(71,68)"/>
<path d="M0 0 C2.9375 0.375 2.9375 0.375 6 1 C6.33 1.66 6.66 2.32 7 3 C8.98 3 10.96 3 13 3 C13 3.66 13 4.32 13 5 C7.39 6.65 1.78 8.3 -4 10 C-4.33 9.34 -4.66 8.68 -5 8 C-4.34 8 -3.68 8 -3 8 C-3 6.68 -3 5.36 -3 4 C-1.35 3.67 0.3 3.34 2 3 C2 2.34 2 1.68 2 1 C1.34 0.67 0.68 0.34 0 0 Z " fill="#E9F1F2" transform="translate(32,38)"/>
<path d="M0 0 C5.28137429 0.51525603 8.57221156 2.25477117 13 5 C13 6.65 13 8.3 13 10 C11.02 10.99 11.02 10.99 9 12 C8.68546875 11.46890625 8.3709375 10.9378125 8.046875 10.390625 C5.68044412 6.48458848 3.44694458 3.06395074 0 0 Z " fill="#D5E8F4" transform="translate(51,21)"/>
<path d="M0 0 C5.51489583 4.05273324 9.51459906 8.52760173 12 15 C11.67 15.66 11.34 16.32 11 17 C10.01 17.33 9.02 17.66 8 18 C5.00569341 12.11463876 2.09242838 6.27728515 0 0 Z " fill="#214F93" transform="translate(66,23)"/>
<path d="M0 0 C0.66 0 1.32 0 2 0 C1.67 5.28 1.34 10.56 1 16 C0.01 15.67 -0.98 15.34 -2 15 C-2.33 16.32 -2.66 17.64 -3 19 C-3.35368021 11.87399867 -2.95671348 6.52940894 0 0 Z " fill="#1B4B96" transform="translate(20,34)"/>
<path d="M0 0 C1.125 3.75 1.125 3.75 0 6 C-7.38461538 6.36923077 -7.38461538 6.36923077 -10.5 4.5 C-10.995 4.005 -11.49 3.51 -12 3 C-10.56445975 2.49440092 -9.1264798 1.9957251 -7.6875 1.5 C-6.88699219 1.2215625 -6.08648437 0.943125 -5.26171875 0.65625 C-3 0 -3 0 0 0 Z " fill="#F5F9F7" transform="translate(47,68)"/>
<path d="M0 0 C0.33 0.99 0.66 1.98 1 3 C0.360625 3.474375 -0.27875 3.94875 -0.9375 4.4375 C-2.88293306 5.83738726 -2.88293306 5.83738726 -4 7 C-5.66617115 7.04063832 -7.33388095 7.042721 -9 7 C-10 4 -10 4 -10 1 C-6.61981469 -0.04005702 -3.5219721 -0.08004482 0 0 Z " fill="#F6F7F5" transform="translate(58,46)"/>
<path d="M0 0 C0.99 0.33 1.98 0.66 3 1 C3 1.99 3 2.98 3 4 C3.99 4.33 4.98 4.66 6 5 C5.01 5.495 5.01 5.495 4 6 C4 7.65 4 9.3 4 11 C3.01 11.495 3.01 11.495 2 12 C2 10.68 2 9.36 2 8 C1.67 9.65 1.34 11.3 1 13 C0.67 13 0.34 13 0 13 C0 11.35 0 9.7 0 8 C-0.66 7.67 -1.32 7.34 -2 7 C-1.34 7 -0.68 7 0 7 C0 6.34 0 5.68 0 5 C-3.3 5 -6.6 5 -10 5 C-10 4.67 -10 4.34 -10 4 C-6.7 4 -3.4 4 0 4 C-0.33 3.01 -0.66 2.02 -1 1 C-0.67 0.67 -0.34 0.34 0 0 Z " fill="#3461A4" transform="translate(60,37)"/>
<path d="M0 0 C0.33 0 0.66 0 1 0 C1.37634203 6.80203375 0.77471079 11.75690073 -2 18 C-3.55078125 16.85546875 -3.55078125 16.85546875 -5 15 C-4.85546875 12.30078125 -4.85546875 12.30078125 -4.1875 9.3125 C-3.97480469 8.31863281 -3.76210937 7.32476562 -3.54296875 6.30078125 C-3.27419922 5.16189453 -3.27419922 5.16189453 -3 4 C-2.67 4.99 -2.34 5.98 -2 7 C-1.34 7 -0.68 7 0 7 C0 4.69 0 2.38 0 0 Z " fill="#2F5896" transform="translate(78,44)"/>
<path d="M0 0 C0.66 0 1.32 0 2 0 C3.6875 1.6875 3.6875 1.6875 5 4 C4.6875 6.75 4.6875 6.75 4 9 C3.01 9.33 2.02 9.66 1 10 C0.34 9.67 -0.32 9.34 -1 9 C-1 8.34 -1 7.68 -1 7 C-1.99 6.67 -2.98 6.34 -4 6 C-3.525625 5.566875 -3.05125 5.13375 -2.5625 4.6875 C-0.76313043 2.97690387 -0.76313043 2.97690387 0 0 Z " fill="#F7F8F7" transform="translate(67,30)"/>
<path d="M0 0 C0.99386719 0.00902344 1.98773438 0.01804688 3.01171875 0.02734375 C4.15060547 0.04474609 4.15060547 0.04474609 5.3125 0.0625 C5.3125 0.7225 5.3125 1.3825 5.3125 2.0625 C-0.14211169 3.44779821 -5.05468401 4.3021943 -10.6875 4.0625 C-7.70956006 -0.4044099 -5.03135189 -0.05919238 0 0 Z " fill="#0E4590" transform="translate(54.6875,41.9375)"/>
<path d="M0 0 C0 0.66 0 1.32 0 2 C-3.44247303 4.11844494 -6.01676988 4.08129041 -10 4 C-11.67453799 4.291224 -13.34550895 4.61070799 -15 5 C-14.67 4.01 -14.34 3.02 -14 2 C-11.85546875 1.015625 -11.85546875 1.015625 -9.1875 0.25 C-8.31480469 -0.01296875 -7.44210938 -0.2759375 -6.54296875 -0.546875 C-3.94565881 -1.00968292 -2.46623472 -0.85082224 0 0 Z " fill="#23539A" transform="translate(64,73)"/>
<path d="M0 0 C3.44852854 1.14950951 4.3569424 1.80036151 6 5 C5.1875 8.25 5.1875 8.25 4 11 C2.68 11 1.36 11 0 11 C0 7.37 0 3.74 0 0 Z " fill="#104794" transform="translate(69,56)"/>
<path d="M0 0 C-4.65701084 3.69349135 -8.0517125 4.31865826 -14 4 C-14.99 3.34 -15.98 2.68 -17 2 C-11.35600642 -0.44064587 -6.02248522 -0.19289099 0 0 Z " fill="#0C4195" transform="translate(53,18)"/>
<path d="M0 0 C0.99 0 1.98 0 3 0 C2.44894091 3.9492568 1.61064629 7.34920174 0 11 C-0.33 11 -0.66 11 -1 11 C-1 9.35 -1 7.7 -1 6 C-2.65 6 -4.3 6 -6 6 C-4 4 -2 2 0 0 Z " fill="#D2E1F0" transform="translate(57,54)"/>
<path d="M0 0 C0.66666667 1.33333333 1.33333333 2.66666667 2 4 C2.5775 4.99 3.155 5.98 3.75 7 C5 10 5 10 4.1875 12.375 C3.795625 12.91125 3.40375 13.4475 3 14 C2.01 14 1.02 14 0 14 C-0.19456705 12.04235617 -0.38044247 10.08384679 -0.5625 8.125 C-0.66691406 7.03445312 -0.77132813 5.94390625 -0.87890625 4.8203125 C-1 2 -1 2 0 0 Z " fill="#E8F0F1" transform="translate(17,53)"/>
<path d="M0 0 C2.99324263 1.0975223 3.84610901 1.67682892 5.25 4.625 C5.4975 5.40875 5.745 6.1925 6 7 C1.51474352 6.343621 -2.66914029 5.29925791 -7 4 C-6.401875 3.896875 -5.80375 3.79375 -5.1875 3.6875 C-2.71756736 2.91123545 -1.67748765 1.92911079 0 0 Z " fill="#D2DFF0" transform="translate(50,26)"/>
<path d="M0 0 C2.52588702 2.36292656 3.88820837 3.66462511 5 7 C4.34 7 3.68 7 3 7 C2.34 8.32 1.68 9.64 1 11 C-1.97 10.67 -4.94 10.34 -8 10 C-5.33333333 9.33333333 -2.66666667 8.66666667 0 8 C-0.185625 7.05125 -0.37125 6.1025 -0.5625 5.125 C-1 2 -1 2 0 0 Z " fill="#2A5898" transform="translate(55,25)"/>
<path d="M0 0 C-1 3 -1 3 -3 5 C-2.34 5.33 -1.68 5.66 -1 6 C-0.67 5.34 -0.34 4.68 0 4 C0.99 4.66 1.98 5.32 3 6 C-0.28519475 7.09506492 -2.73663415 7.09960608 -6.1875 7.0625 C-7.81751953 7.04896484 -7.81751953 7.04896484 -9.48046875 7.03515625 C-10.31191406 7.02355469 -11.14335938 7.01195313 -12 7 C-12 6.67 -12 6.34 -12 6 C-10.35 6 -8.7 6 -7 6 C-6.566875 4.7934375 -6.566875 4.7934375 -6.125 3.5625 C-4.57187581 0.02482823 -3.82399698 0 0 0 Z " fill="#305AA1" transform="translate(54,72)"/>
<path d="M0 0 C0.99 0.33 1.98 0.66 3 1 C-1.24242424 7.81818182 -1.24242424 7.81818182 -5 10 C-5.99 10 -6.98 10 -8 10 C-6.34908222 5.70761377 -3.26245434 3.1206085 0 0 Z " fill="#143F88" transform="translate(52,54)"/>
<path d="M0 0 C2.97 0.33 5.94 0.66 9 1 C8.01 1.33 7.02 1.66 6 2 C6.33 3.65 6.66 5.3 7 7 C3.89448334 7 2.64738916 6.4606285 0 5 C0 3.35 0 1.7 0 0 Z " fill="#DBEAF4" transform="translate(64,45)"/>
<path d="M0 0 C0.66 0 1.32 0 2 0 C2.33 0.99 2.66 1.98 3 3 C3.66 3 4.32 3 5 3 C5 3.66 5 4.32 5 5 C5.66 5.66 6.32 6.32 7 7 C2.38 7 -2.24 7 -7 7 C-6.01 6.67 -5.02 6.34 -4 6 C-4 5.01 -4 4.02 -4 3 C-2.68 3 -1.36 3 0 3 C0 2.01 0 1.02 0 0 Z " fill="#F8FCFB" transform="translate(42,35)"/>
<path d="M0 0 C0.98484375 0.01804687 1.9696875 0.03609375 2.984375 0.0546875 C4.10585938 0.08949219 4.10585938 0.08949219 5.25 0.125 C3.91796875 1.64453125 3.91796875 1.64453125 2.25 3.125 C-0.4375 2.8125 -0.4375 2.8125 -2.75 2.125 C-2.75 2.785 -2.75 3.445 -2.75 4.125 C-3.74 3.795 -4.73 3.465 -5.75 3.125 C-7.91715557 3.99983915 -7.91715557 3.99983915 -9.75 5.125 C-9.75 4.135 -9.75 3.145 -9.75 2.125 C-6.40060119 0.09941119 -3.88037449 -0.09238987 0 0 Z " fill="#E4F1F4" transform="translate(34.75,31.875)"/>
<path d="M0 0 C2.475 0.99 2.475 0.99 5 2 C5 1.34 5 0.68 5 0 C5.99 0.33 6.98 0.66 8 1 C3.72171358 4.25149768 0.26170694 6.58832253 -5 8 C-3.62845496 5.04590299 -2.01136276 2.55991624 0 0 Z " fill="#C7DEEF" transform="translate(59,67)"/>
<path d="M0 0 C0.66 1.32 1.32 2.64 2 4 C1.34 4 0.68 4 0 4 C0.26393501 7.43230448 0.26393501 7.43230448 1 11 C1.99 11.66 2.98 12.32 4 13 C0.25 16 0.25 16 -2 16 C-2.20413361 10.26157749 -2.27141454 5.39460953 0 0 Z " fill="#D3E8F6" transform="translate(23,36)"/>
<path d="M0 0 C2.62187494 1.04874998 3.79371361 1.64931313 5.25 4.125 C5.4975 4.74375 5.745 5.3625 6 6 C5.34 6 4.68 6 4 6 C4 9.3 4 12.6 4 16 C3.67 16 3.34 16 3 16 C2.96261719 15.30132812 2.92523438 14.60265625 2.88671875 13.8828125 C2.78810547 12.51769531 2.78810547 12.51769531 2.6875 11.125 C2.62949219 10.22007813 2.57148437 9.31515625 2.51171875 8.3828125 C2.2117961 5.63778399 2.2117961 5.63778399 -1 4 C-1.33 4.66 -1.66 5.32 -2 6 C-2 5.01 -2 4.02 -2 3 C-1.34 2.67 -0.68 2.34 0 2 C0 1.34 0 0.68 0 0 Z " fill="#345B9B" transform="translate(65,50)"/>
<path d="M0 0 C1.2065625 0.0309375 1.2065625 0.0309375 2.4375 0.0625 C2.4375 0.7225 2.4375 1.3825 2.4375 2.0625 C4.0875 2.0625 5.7375 2.0625 7.4375 2.0625 C7.1075 3.3825 6.7775 4.7025 6.4375 6.0625 C4.95543505 5.808004 3.47681385 5.53338238 2 5.25 C1.17628906 5.09917969 0.35257813 4.94835937 -0.49609375 4.79296875 C-1.17800781 4.55191406 -1.85992187 4.31085937 -2.5625 4.0625 C-2.8925 3.0725 -3.2225 2.0825 -3.5625 1.0625 C-2.5625 0.0625 -2.5625 0.0625 0 0 Z " fill="#F8F7FB" transform="translate(42.5625,23.9375)"/>
<path d="M0 0 C0 0.33 0 0.66 0 1 C-0.83144531 1.04898437 -1.66289063 1.09796875 -2.51953125 1.1484375 C-3.60621094 1.22320313 -4.69289063 1.29796875 -5.8125 1.375 C-6.89144531 1.44460937 -7.97039063 1.51421875 -9.08203125 1.5859375 C-12.18626186 1.81195733 -12.18626186 1.81195733 -15 4 C-15 4.66 -15 5.32 -15 6 C-16.32 6.33 -17.64 6.66 -19 7 C-19 6.34 -19 5.68 -19 5 C-19.99 4.67 -20.98 4.34 -22 4 C-14.69967977 -0.22550835 -8.31248491 -0.46251848 0 0 Z " fill="#486EA1" transform="translate(54,17)"/>
<path d="M0 0 C1.52299523 2.93720508 2.80100302 5.9168649 4 9 C3.01 9 2.02 9 1 9 C1 10.65 1 12.3 1 14 C-1 11 -1 11 -1 9 C-1.66 8.67 -2.32 8.34 -3 8 C-2.01 5.36 -1.02 2.72 0 0 Z " fill="#093B8F" transform="translate(62,44)"/>
<path d="M0 0 C2 0.75 2 0.75 4 3.75 C3.67 4.74 3.34 5.73 3 6.75 C1.35 6.42 -0.3 6.09 -2 5.75 C-1.67 4.43 -1.34 3.11 -1 1.75 C-1.66 1.75 -2.32 1.75 -3 1.75 C-3 2.74 -3 3.73 -3 4.75 C-3.66 4.42 -4.32 4.09 -5 3.75 C-4.67 2.76 -4.34 1.77 -4 0.75 C-2 -0.25 -2 -0.25 0 0 Z " fill="#E7EEF1" transform="translate(45,33.25)"/>
<path d="M0 0 C1.175625 0.5259375 1.175625 0.5259375 2.375 1.0625 C3.674375 1.5265625 3.674375 1.5265625 5 2 C5.66 1.67 6.32 1.34 7 1 C6.67 2.32 6.34 3.64 6 5 C5.34 5 4.68 5 4 5 C3.67 5.99 3.34 6.98 3 8 C0.37613513 4.93882432 0 4.26826873 0 0 Z " fill="#E5EFF5" transform="translate(23,55)"/>
<path d="M0 0 C0.99 0.33 1.98 0.66 3 1 C0.375 6.75 0.375 6.75 -3 9 C-3.66 8.34 -4.32 7.68 -5 7 C-3.35 4.69 -1.7 2.38 0 0 Z " fill="#1B418D" transform="translate(57,64)"/>
<path d="M0 0 C2.31 0 4.62 0 7 0 C7.33 1.32 7.66 2.64 8 4 C5.03 4 2.06 4 -1 4 C-0.67 2.68 -0.34 1.36 0 0 Z " fill="#F0F7FB" transform="translate(51,37)"/>
<path d="M0 0 C1.4391134 0.28359887 2.87625518 0.57721399 4.3125 0.875 C5.11300781 1.03742187 5.91351563 1.19984375 6.73828125 1.3671875 C9 2 9 2 12 4 C8.57056481 5.18771723 6.62215325 4.80226223 3.25 3.5625 C2.45078125 3.27503906 1.6515625 2.98757812 0.828125 2.69140625 C0.22484375 2.46324219 -0.3784375 2.23507813 -1 2 C-0.67 1.34 -0.34 0.68 0 0 Z " fill="#17438E" transform="translate(43,30)"/>
<path d="M0 0 C0.66 0.33 1.32 0.66 2 1 C1.67 1.33 1.34 1.66 1 2 C2.2065625 2.309375 2.2065625 2.309375 3.4375 2.625 C4.283125 3.07875 5.12875 3.5325 6 4 C6.8125 7.125 6.8125 7.125 7 10 C5.70684939 9.04367001 4.41553147 8.08486149 3.125 7.125 C2.40570313 6.59132813 1.68640625 6.05765625 0.9453125 5.5078125 C-1 4 -1 4 -3 2 C-2.01 1.34 -1.02 0.68 0 0 Z " fill="#E1F0F6" transform="translate(65,18)"/>
<path d="M0 0 C2.5 1.1875 2.5 1.1875 5 3 C5.3125 5.6875 5.3125 5.6875 5 8 C4.01 7.67 3.02 7.34 2 7 C2 6.34 2 5.68 2 5 C1.01 5 0.02 5 -1 5 C-0.67 3.35 -0.34 1.7 0 0 Z " fill="#0B3A94" transform="translate(57,31)"/>
<path d="M0 0 C2.97 0.33 5.94 0.66 9 1 C8.67 1.99 8.34 2.98 8 4 C5.36 3.67 2.72 3.34 0 3 C0 2.01 0 1.02 0 0 Z " fill="#0B3F88" transform="translate(39,74)"/>
<path d="M0 0 C1.32 1.32 2.64 2.64 4 4 C3.01 4.33 2.02 4.66 1 5 C1.66 5.33 2.32 5.66 3 6 C2.67 6.99 2.34 7.98 2 9 C0.5 7.8125 0.5 7.8125 -1 6 C-1.25 3.375 -1.25 3.375 -1 1 C-0.67 0.67 -0.34 0.34 0 0 Z " fill="#E8EEF3" transform="translate(22,65)"/>
<path d="M0 0 C0.99 0 1.98 0 3 0 C2.67 2.31 2.34 4.62 2 7 C1.01 7 0.02 7 -1 7 C-1.625 5.1875 -1.625 5.1875 -2 3 C-1.34 2.01 -0.68 1.02 0 0 Z " fill="#305FA1" transform="translate(59,59)"/>
<path d="M0 0 C2.0625 0.75 2.0625 0.75 4 2 C4.33 2.99 4.66 3.98 5 5 C4.34 5 3.68 5 3 5 C2.67 5.66 2.34 6.32 2 7 C2 6.01 2 5.02 2 4 C0.35 4 -1.3 4 -3 4 C-2.67 3.01 -2.34 2.02 -2 1 C-1.34 0.67 -0.68 0.34 0 0 Z " fill="#EAF1EF" transform="translate(29,51)"/>
<path d="M0 0 C0.66 0 1.32 0 2 0 C3.42944945 2.35438733 4.08661261 3.48032433 3.625 6.25 C3.41875 6.8275 3.2125 7.405 3 8 C2.34 7.67 1.68 7.34 1 7 C0.67 8.32 0.34 9.64 0 11 C0 7.37 0 3.74 0 0 Z " fill="#3B619A" transform="translate(17,42)"/>
<path d="M0 0 C-0.61875 0.28875 -1.2375 0.5775 -1.875 0.875 C-4.13325765 1.93720042 -4.13325765 1.93720042 -6 4 C-6 3.34 -6 2.68 -6 2 C-10.455 2.495 -10.455 2.495 -15 3 C-12.41464321 1.27642881 -10.96188386 0.55264982 -8.0625 -0.1875 C-7.39347656 -0.36667969 -6.72445312 -0.54585937 -6.03515625 -0.73046875 C-3.75319112 -1.03268678 -2.17973341 -0.68756692 0 0 Z " fill="#345A97" transform="translate(49,43)"/>
<path d="M0 0 C0.66 0.33 1.32 0.66 2 1 C2 4.63 2 8.26 2 12 C1.34 12 0.68 12 0 12 C0.33 9.69 0.66 7.38 1 5 C0.34 5 -0.32 5 -1 5 C-0.67 3.35 -0.34 1.7 0 0 Z " fill="#0E3F84" transform="translate(76,39)"/>
<path d="M0 0 C2 3 2 3 3 6 C1.625 7.5 1.625 7.5 0 9 C-0.66 9 -1.32 9 -2 9 C-2.33 8.01 -2.66 7.02 -3 6 C-2.34 5.34 -1.68 4.68 -1 4 C-0.3574765 1.93125966 -0.3574765 1.93125966 0 0 Z " fill="#245290" transform="translate(64,27)"/>
<path d="M0 0 C0.99 0 1.98 0 3 0 C1.50902342 3.7952131 -0.75700849 5.61042731 -4 8 C-4 4.0521912 -2.66275435 2.81491174 0 0 Z " fill="#D1E6EF" transform="translate(46,56)"/>
<path d="M0 0 C0.33 0 0.66 0 1 0 C0.88601335 1.62580966 0.75844341 3.25067157 0.625 4.875 C0.52058594 6.23238281 0.52058594 6.23238281 0.4140625 7.6171875 C0 10 0 10 -2 12 C-2.33 10.02 -2.66 8.04 -3 6 C-2.34 6 -1.68 6 -1 6 C-0.67 4.02 -0.34 2.04 0 0 Z " fill="#CEE8FA" transform="translate(74,48)"/>
<path d="M0 0 C0.66 0 1.32 0 2 0 C3.625 2 3.625 2 5 4 C4.67 4.66 4.34 5.32 4 6 C1.69 6 -0.62 6 -3 6 C-2.01 4.02 -1.02 2.04 0 0 Z " fill="#D0E2F6" transform="translate(67,30)"/>
<path d="M0 0 C-0.78375 0.598125 -1.5675 1.19625 -2.375 1.8125 C-5.14574323 3.91085249 -5.14574323 3.91085249 -7 7 C-7.33 4.69 -7.66 2.38 -8 0 C-4.71303767 -0.79953138 -3.28976808 -1.09658936 0 0 Z " fill="#2A5797" transform="translate(29,32)"/>
<path d="M0 0 C-0.66 1.32 -1.32 2.64 -2 4 C-3.98 4 -5.96 4 -8 4 C-4.5 0 -4.5 0 0 0 Z " fill="#1D488E" transform="translate(35,22)"/>
<path d="M0 0 C-0.33 0.99 -0.66 1.98 -1 3 C-3.64 3.33 -6.28 3.66 -9 4 C-8.67 3.01 -8.34 2.02 -8 1 C-5.29120665 -0.35439668 -2.99066732 -0.06501451 0 0 Z " fill="#063D89" transform="translate(58,74)"/>
<path d="M0 0 C2.97 0.495 2.97 0.495 6 1 C5.1875 2.9375 5.1875 2.9375 4 5 C3.01 5.33 2.02 5.66 1 6 C0.67 5.01 0.34 4.02 0 3 C0.66 3 1.32 3 2 3 C2 2.34 2 1.68 2 1 C1.34 0.67 0.68 0.34 0 0 Z " fill="#E0EEF1" transform="translate(27,18)"/>
<path d="M0 0 C1.98 0.66 3.96 1.32 6 2 C5.01 2.33 4.02 2.66 3 3 C3 3.66 3 4.32 3 5 C1.68 4.67 0.36 4.34 -1 4 C-0.67 2.68 -0.34 1.36 0 0 Z " fill="#F2F8F9" transform="translate(61,64)"/>
<path d="M0 0 C0.99 0.33 1.98 0.66 3 1 C1.02 3.31 -0.96 5.62 -3 8 C-3.33 6.68 -3.66 5.36 -4 4 C-2.0625 1.75 -2.0625 1.75 0 0 Z " fill="#DBEAF7" transform="translate(25,24)"/>
<path d="M0 0 C1.98 0.99 1.98 0.99 4 2 C4 3.65 4 5.3 4 7 C3.01 7 2.02 7 1 7 C0 2.25 0 2.25 0 0 Z " fill="#E0EBF1" transform="translate(60,24)"/>
<path d="M0 0 C0.33 0.99 0.66 1.98 1 3 C0.67 3.66 0.34 4.32 0 5 C-1.98 4.34 -3.96 3.68 -6 3 C-4.60722783 0.21445565 -3.01148006 0 0 0 Z " fill="#D8E4F2" transform="translate(41,69)"/>
<path d="M0 0 C2.31 0 4.62 0 7 0 C7 0.99 7 1.98 7 3 C5.02 3 3.04 3 1 3 C0.67 2.01 0.34 1.02 0 0 Z " fill="#144289" transform="translate(63,42)"/>
<path d="M0 0 C2.31 1.98 4.62 3.96 7 6 C5.68 6.99 4.36 7.98 3 9 C2 6 1 3 0 0 Z " fill="#2B598F" transform="translate(66,23)"/>
<path d="M0 0 C4.64891954 -0.32434322 7.22406608 0.223578 11 3 C11 3.33 11 3.66 11 4 C9.35 4 7.7 4 6 4 C6 3.34 6 2.68 6 2 C3.03 1.505 3.03 1.505 0 1 C0 0.67 0 0.34 0 0 Z " fill="#DCF3FA" transform="translate(39,22)"/>
<path d="M0 0 C0.763125 0.20625 1.52625 0.4125 2.3125 0.625 C0.6625 1.945 -0.9875 3.265 -2.6875 4.625 C-3.6775 3.635 -4.6675 2.645 -5.6875 1.625 C-2.6875 -0.375 -2.6875 -0.375 0 0 Z " fill="#2F5692" transform="translate(44.6875,63.375)"/>
<path d="M0 0 C0.66 0 1.32 0 2 0 C2.125 5.75 2.125 5.75 1 8 C0.34 8 -0.32 8 -1 8 C-0.67 5.36 -0.34 2.72 0 0 Z " fill="#F6F6F4" transform="translate(64,56)"/>
<path d="M0 0 C1.98 0.495 1.98 0.495 4 1 C4.33 2.65 4.66 4.3 5 6 C4.01 5.67 3.02 5.34 2 5 C2 4.34 2 3.68 2 3 C1.01 2.67 0.02 2.34 -1 2 C-0.67 1.34 -0.34 0.68 0 0 Z " fill="#EBF0EF" transform="translate(74,63)"/>
</svg>
